# xmcd
#
# Track frame offsets: 
#        300
#        21999
#        45733
#        66457
#        82998
#        106001
#        129136
#        157668
#        181333
#        201374
#        225261
#        246061
#        263609
#        281562
#        297396
#
# Disc length: 4243 seconds
#
# Revision: 0
# Processed by: cddbd v1.5.2PL0 Copyright (c) Steve Scherf et al.
# Submitted via: ExactAudioCopy v0.99pb5
#
DISCID=c4108f0f
DTITLE=Alannah Myles - The Very Best Of
DYEAR=1989
DGENRE=Pop Female Singer-Songwriter
TTITLE0=Black Velvet
TTITLE1=Break the Silence
TTITLE2=Everybody's Breaking Up
TTITLE3=Love Is
TTITLE4=Song Instead Of A Kiss
TTITLE5=Sonny Say You Will
TTITLE6=Our World Our Times
TTITLE7=Long, Long Time
TTITLE8=Great Divide
TTITLE9=Family Secret
TTITLE10=Lover Of Mine
TTITLE11=Bad 4 You
TTITLE12=What are We Waiting For
TTITLE13=You Love Who You Love
TTITLE14=Still Got This Thing
EXTD=
EXTT0=
EXTT1=
EXTT2=
EXTT3=
EXTT4=
EXTT5=
EXTT6=
EXTT7=
EXTT8=
EXTT9=
EXTT10=
EXTT11=
EXTT12=
EXTT13=
EXTT14=
PLAYORDER=
